<svg xmlns="http://www.w3.org/2000/svg" width="18" height="16" viewBox="0 0 18 16" fill="none">
  <g clip-path="url(#clip0_1328_13777)">
    <mask id="mask0_1328_13777" style="mask-type:luminance" maskUnits="userSpaceOnUse" x="-1" y="0" width="19" height="17">
      <path d="M17.998 0.000976562H-0.00195312V16.001H17.998V0.000976562Z" fill="white"/>
    </mask>
    <g mask="url(#mask0_1328_13777)">
      <path d="M11.1394 0.000976563H6.5974C6.52309 0.0024903 6.45225 0.0323201 6.3997 0.0842279C6.34714 0.136136 6.31694 0.206102 6.3154 0.279495C6.20741 4.6469 3.9694 8.78913 0.111405 11.7284C0.051977 11.7731 0.0124939 11.839 0.00129787 11.912C-0.00989819 11.9849 0.00806969 12.0594 0.0514053 12.1195L2.71541 15.8825C2.73636 15.9133 2.76347 15.9396 2.79507 15.9597C2.82667 15.9798 2.86209 15.9933 2.89917 15.9994C2.93625 16.0055 2.9742 16.0041 3.0107 15.9952C3.04719 15.9863 3.08146 15.9701 3.11141 15.9476C5.44891 14.1971 7.40405 11.998 8.85941 9.48246C10.3148 11.998 12.2699 14.1971 14.6074 15.9476C14.6369 15.97 14.6707 15.986 14.7067 15.9949C14.7427 16.0037 14.7802 16.0051 14.8168 15.999C14.8534 15.9929 14.8883 15.9794 14.9194 15.9593C14.9505 15.9393 14.977 15.9131 14.9974 15.8825L17.6674 12.1195C17.7107 12.0594 17.7287 11.9849 17.7175 11.912C17.7063 11.839 17.6668 11.7731 17.6074 11.7284C13.7494 8.78913 11.5114 4.6469 11.3974 0.279495C11.3977 0.209557 11.3713 0.142082 11.3235 0.090481C11.2757 0.0388796 11.21 0.00692836 11.1394 0.000976563Z" fill="#FF875B"/>
    </g>
  </g>
  <defs>
    <clipPath id="clip0_1328_13777">
      <rect width="18" height="16" fill="white"/>
    </clipPath>
  </defs>
</svg>