<svg width="24" height="24" viewBox="0 0 24 24" fill="none" xmlns="http://www.w3.org/2000/svg">
<g id="Frame">
<path id="Vector" fill-rule="evenodd" clip-rule="evenodd" d="M5.47056 5.47015C5.61119 5.3297 5.80181 5.25081 6.00056 5.25081C6.19931 5.25081 6.38994 5.3297 6.53056 5.47015L12.0006 10.9402L17.4706 5.47015C17.5392 5.39647 17.622 5.33736 17.714 5.29637C17.806 5.25538 17.9053 5.23334 18.006 5.23156C18.1067 5.22979 18.2068 5.24831 18.3002 5.28603C18.3935 5.32375 18.4784 5.3799 18.5496 5.45112C18.6208 5.52233 18.677 5.60717 18.7147 5.70056C18.7524 5.79394 18.7709 5.89397 18.7692 5.99468C18.7674 6.09538 18.7453 6.19469 18.7043 6.28669C18.6634 6.37869 18.6042 6.46149 18.5306 6.53015L13.0606 12.0002L18.5306 17.4702C18.6042 17.5388 18.6634 17.6216 18.7043 17.7136C18.7453 17.8056 18.7674 17.9049 18.7692 18.0056C18.7709 18.1063 18.7524 18.2064 18.7147 18.2998C18.677 18.3931 18.6208 18.478 18.5496 18.5492C18.4784 18.6204 18.3935 18.6766 18.3002 18.7143C18.2068 18.752 18.1067 18.7705 18.006 18.7687C17.9053 18.767 17.806 18.7449 17.714 18.7039C17.622 18.6629 17.5392 18.6038 17.4706 18.5302L12.0006 13.0602L6.53056 18.5302C6.38839 18.6626 6.20034 18.7348 6.00604 18.7313C5.81174 18.7279 5.62635 18.6492 5.48894 18.5118C5.35153 18.3744 5.27281 18.189 5.26939 17.9947C5.26596 17.8004 5.33808 17.6123 5.47056 17.4702L10.9406 12.0002L5.47056 6.53015C5.33011 6.38953 5.25122 6.1989 5.25122 6.00015C5.25122 5.8014 5.33011 5.61078 5.47056 5.47015Z" fill="#08090A"/>
</g>
</svg>
