<svg width="160" height="160" viewBox="0 0 160 160" fill="none" xmlns="http://www.w3.org/2000/svg">
<g id="Frame">
<path id="Vector" d="M92.8259 59.1336V46.9736L66.5192 31.787L55.9327 25.6803L45.3327 19.5603L39.8526 16.4003V28.547L18.666 16.3203V34.5603C18.666 42.2536 20.906 50.2536 25.3594 58.547C29.8127 66.8403 35.3593 73.3603 41.9727 78.0937C43.5593 83.667 46.0524 88.987 49.4524 94.0403C52.0924 97.9603 54.9992 101.44 58.1859 104.467C59.1192 105.36 60.066 106.214 61.0393 107.027V125.867L39.8526 113.64V125.8L92.8259 156.374V144.227L71.6394 131.987V113.147C75.9594 114.534 79.8259 114.654 83.2259 113.534C83.9325 113.294 84.6125 113.014 85.2392 112.654C85.6792 112.414 86.1059 112.147 86.5059 111.84C86.9192 111.52 87.3194 111.187 87.706 110.814C88.9193 109.6 89.9327 108.067 90.706 106.227C92.2127 106.894 93.6527 107.4 95.0527 107.747H95.0658C96.1858 108.027 97.266 108.2 98.306 108.28C100.853 108.467 103.199 108.054 105.319 107.04L105.839 106.774C106.346 106.52 106.839 106.214 107.319 105.867C109.679 104.2 111.426 101.894 112.533 98.947C113.519 96.347 114.013 93.227 114.013 89.6003V71.3603L92.8259 59.1336ZM39.8526 63.8003C36.6792 60.6536 34.1192 56.9736 32.1725 52.7603C30.2392 48.547 29.2659 44.5203 29.2659 40.667V34.587L39.8526 40.707V63.8003ZM103.412 83.4803C103.412 87.3336 102.439 90.2403 100.506 92.2137C98.5592 94.1737 95.9992 94.907 92.8259 94.387V71.2937L103.412 77.4003V83.4803Z" fill="#490878" stroke="white" stroke-linecap="round" stroke-linejoin="round"/>
<path id="Vector_2" d="M39.8541 40.7061V63.7993C36.6808 60.6526 34.1208 56.9726 32.1741 52.7593C30.2408 48.5459 29.2676 44.5194 29.2676 40.6661V34.5859L39.8541 40.7061Z" fill="#490878" stroke="white" stroke-linecap="round" stroke-linejoin="round"/>
<path id="Vector_3" d="M103.413 77.3996V83.4796C103.413 87.333 102.44 90.2396 100.506 92.213C98.5595 94.173 95.9995 94.9063 92.8262 94.3863V71.293L103.413 77.3996Z" fill="#490878" stroke="white" stroke-linecap="round" stroke-linejoin="round"/>
<path id="Vector_4" d="M119.493 130.893V143.039L92.8262 156.373V144.226L108.213 136.533L119.493 130.893Z" fill="#490878" stroke="white" stroke-linecap="round" stroke-linejoin="round"/>
<path id="Vector_5" d="M119.494 130.894L108.214 136.534L92.8272 144.228L71.6406 131.988L87.014 124.294L98.3073 118.654L119.494 130.894Z" fill="#490878" stroke="white" stroke-linecap="round" stroke-linejoin="round"/>
<path id="Vector_6" d="M98.3073 108.279V118.653L87.014 124.293L71.6406 131.986V113.146C75.9606 114.533 79.8272 114.653 83.2272 113.533C83.9338 113.293 84.6138 113.013 85.2405 112.653L86.6673 111.933L87.7073 111.426L95.054 107.746H95.067C96.187 108.026 97.2673 108.199 98.3073 108.279Z" fill="#490878" stroke="white" stroke-linecap="round" stroke-linejoin="round"/>
<path id="Vector_7" d="M140.68 58.0273V76.2673C140.68 83.9607 138.453 89.3873 133.987 92.534C133.413 92.934 132.827 93.294 132.227 93.6007H132.2L105.84 106.774C106.347 106.521 106.84 106.214 107.32 105.867C109.68 104.201 111.427 101.894 112.533 98.9473C113.52 96.3473 114.013 93.2273 114.013 89.6007V71.3607L119.493 68.6273L129.387 63.6673L140.68 58.0273Z" fill="#490878" stroke="white" stroke-linecap="round" stroke-linejoin="round"/>
<path id="Vector_8" d="M119.493 33.6406V45.8006L92.8262 59.134V46.974L119.493 33.6406Z" fill="#490878" stroke="white" stroke-linecap="round" stroke-linejoin="round"/>
<path id="Vector_9" d="M140.68 58.0274L129.386 63.6674L119.493 68.6275L114.013 71.3608L92.8262 59.1341L119.493 45.8008L140.68 58.0274Z" fill="#490878" stroke="white" stroke-linecap="round" stroke-linejoin="round"/>
<path id="Vector_10" d="M55.2392 8.70634L45.3327 13.6663L39.8526 16.3997V28.5463L18.666 16.3197L45.3327 2.98633L55.2392 8.70634Z" fill="#490878" stroke="white" stroke-linecap="round" stroke-linejoin="round"/>
<path id="Vector_11" d="M119.494 33.6398L92.8268 46.9731L66.5202 31.7864L55.9336 25.6798L45.3338 19.5598L39.8535 16.3998L45.3338 13.6664L55.2403 8.70642L66.5202 3.06641L119.494 33.6398Z" fill="#490878" stroke="white" stroke-linecap="round" stroke-linejoin="round"/>
<path id="Vector_12" d="M61.0404 107.027V125.867L39.8535 113.64L58.1868 104.467C59.1202 105.36 60.0671 106.213 61.0404 107.027Z" fill="#490878" stroke="white" stroke-linecap="round" stroke-linejoin="round"/>
<path id="Vector_13" d="M95.0537 107.747L87.707 111.427L86.667 111.933L85.2402 112.653C85.6802 112.413 86.1068 112.147 86.5068 111.84C86.9201 111.52 87.3204 111.187 87.707 110.813C88.9204 109.6 89.9337 108.067 90.707 106.227C92.2137 106.893 93.6537 107.4 95.0537 107.747Z" fill="#490878" stroke="white" stroke-linecap="round" stroke-linejoin="round"/>
<g id="Vector_14">
<path d="M85.2392 112.652L84.8125 112.866L85.2392 112.652Z" fill="#490878"/>
<path d="M85.2392 112.652L84.8125 112.866" stroke="white" stroke-linecap="round" stroke-linejoin="round"/>
</g>
<g id="Vector_15">
<path d="M105.319 107.039L105.053 107.172L105.319 107.039Z" fill="#490878"/>
<path d="M105.319 107.039L105.053 107.172" stroke="white" stroke-linecap="round" stroke-linejoin="round"/>
</g>
</g>
</svg>
