<svg width="24" height="24" viewBox="0 0 24 24" fill="none" xmlns="http://www.w3.org/2000/svg">
<g id="Frame">
<path id="Vector" d="M21.9646 10.7681L17.7459 14.4084L19.0312 19.8524C19.1021 20.148 19.0838 20.4579 18.9787 20.7431C18.8736 21.0282 18.6863 21.2758 18.4405 21.4546C18.1947 21.6334 17.9015 21.7353 17.5978 21.7475C17.2941 21.7597 16.9936 21.6816 16.7343 21.5231L11.9999 18.6093L7.26275 21.5231C7.00347 21.6807 6.70335 21.758 6.4002 21.7454C6.09704 21.7327 5.8044 21.6307 5.55913 21.4521C5.31386 21.2734 5.12692 21.0262 5.02185 20.7416C4.91679 20.457 4.89829 20.1476 4.96869 19.8524L6.25869 14.4084L2.03994 10.7681C1.81053 10.5698 1.64462 10.3083 1.56293 10.0163C1.48123 9.72433 1.48737 9.41473 1.58058 9.1262C1.67379 8.83767 1.84994 8.58299 2.08703 8.39397C2.32412 8.20495 2.61164 8.08997 2.91369 8.06339L8.44494 7.61714L10.5787 2.45339C10.6942 2.17196 10.8908 1.93124 11.1434 1.76183C11.3961 1.59241 11.6934 1.50195 11.9976 1.50195C12.3018 1.50195 12.5991 1.59241 12.8518 1.76183C13.1044 1.93124 13.301 2.17196 13.4165 2.45339L15.5493 7.61714L21.0806 8.06339C21.3832 8.08898 21.6716 8.20332 21.9095 8.39208C22.1475 8.58084 22.3244 8.83562 22.4182 9.1245C22.512 9.41338 22.5185 9.72352 22.4368 10.0161C22.3551 10.3086 22.1889 10.5705 21.959 10.769L21.9646 10.7681Z" fill="#66CDAA"/>
</g>
</svg>
