<svg width="41" height="40" viewBox="0 0 41 40" fill="none" xmlns="http://www.w3.org/2000/svg">
<path d="M33 12.5H28V8.75C28 6.76088 27.2098 4.85322 25.8033 3.4467C24.3968 2.04018 22.4891 1.25 20.5 1.25C18.5109 1.25 16.6032 2.04018 15.1967 3.4467C13.7902 4.85322 13 6.76088 13 8.75V12.5H8C7.33696 12.5 6.70107 12.7634 6.23223 13.2322C5.76339 13.7011 5.5 14.337 5.5 15V32.5C5.5 33.163 5.76339 33.7989 6.23223 34.2678C6.70107 34.7366 7.33696 35 8 35H33C33.663 35 34.2989 34.7366 34.7678 34.2678C35.2366 33.7989 35.5 33.163 35.5 32.5V15C35.5 14.337 35.2366 13.7011 34.7678 13.2322C34.2989 12.7634 33.663 12.5 33 12.5ZM21.75 24.7859V28.75C21.75 29.0815 21.6183 29.3995 21.3839 29.6339C21.1495 29.8683 20.8315 30 20.5 30C20.1685 30 19.8505 29.8683 19.6161 29.6339C19.3817 29.3995 19.25 29.0815 19.25 28.75V24.7859C18.416 24.4911 17.7131 23.9109 17.2655 23.1478C16.8179 22.3848 16.6544 21.4881 16.804 20.6163C16.9536 19.7444 17.4066 18.9535 18.0829 18.3833C18.7593 17.8131 19.6154 17.5004 20.5 17.5004C21.3846 17.5004 22.2407 17.8131 22.9171 18.3833C23.5934 18.9535 24.0464 19.7444 24.196 20.6163C24.3456 21.4881 24.1821 22.3848 23.7345 23.1478C23.2869 23.9109 22.584 24.4911 21.75 24.7859ZM25.5 12.5H15.5V8.75C15.5 7.42392 16.0268 6.15215 16.9645 5.21447C17.9021 4.27678 19.1739 3.75 20.5 3.75C21.8261 3.75 23.0979 4.27678 24.0355 5.21447C24.9732 6.15215 25.5 7.42392 25.5 8.75V12.5Z" fill="#6B82A2"/>
</svg>
