<svg width="24" height="22" viewBox="0 0 24 22" fill="none" xmlns="http://www.w3.org/2000/svg">
<path d="M14.8512 0H8.79524C8.69616 0.00204355 8.6017 0.0423138 8.53163 0.112389C8.46155 0.182465 8.42128 0.276919 8.41924 0.376C8.27524 6.272 5.29124 11.864 0.147238 15.832C0.0680006 15.8924 0.0153565 15.9813 0.000428416 16.0798C-0.0144997 16.1783 0.0094575 16.2788 0.0672384 16.36L3.61924 21.44C3.64718 21.4816 3.68332 21.5171 3.72545 21.5442C3.76759 21.5714 3.81482 21.5896 3.86426 21.5979C3.9137 21.6061 3.9643 21.6042 4.01296 21.5921C4.06162 21.5801 4.10731 21.5583 4.14724 21.528C7.26391 19.1648 9.87077 16.196 11.8112 12.8C13.7517 16.196 16.3586 19.1648 19.4752 21.528C19.5145 21.5581 19.5596 21.5798 19.6076 21.5917C19.6556 21.6037 19.7056 21.6056 19.7544 21.5973C19.8032 21.5891 19.8498 21.5708 19.8912 21.5438C19.9327 21.5167 19.9681 21.4814 19.9952 21.44L23.5552 16.36C23.613 16.2788 23.637 16.1783 23.622 16.0798C23.6071 15.9813 23.5545 15.8924 23.4752 15.832C18.3312 11.864 15.3472 6.272 15.1952 0.376C15.1956 0.281583 15.1604 0.190493 15.0967 0.120831C15.0329 0.0511691 14.9453 0.00803492 14.8512 0Z" fill="#FF875B"/>
</svg>
